<svg xmlns="http://www.w3.org/2000/svg" fill="none" viewBox="0 0 24 24"><path fill="#5A607F" d="M19.998 20.25a.75.75 0 0 1 0 1.5h-16a.75.75 0 0 1 0-1.5h16ZM13.9 3.885a2.75 2.75 0 0 1 3.891 0l.824.825a2.75 2.75 0 0 1 0 3.888L9.98 17.237a1.751 1.751 0 0 1-1.238.513H5.498a.75.75 0 0 1-.75-.75v-3.227c0-.463.184-.908.512-1.236l8.64-8.652Zm2.83 1.06a1.25 1.25 0 0 0-1.768 0l-8.64 8.651a.252.252 0 0 0-.074.177v2.477h2.494a.25.25 0 0 0 .177-.074l8.636-8.638a1.25 1.25 0 0 0 0-1.768l-.825-.824Z" data-follow-fill="#5A607F"/></svg>