<svg width="24" height="24" viewBox="0 0 24 24" fill="none" xmlns="http://www.w3.org/2000/svg">
  <g id="icon_question_fill">
    <g id="&#229;&#155;&#190;&#229;&#177;&#130; 1">
      <path id="Vector" d="M11.9981 0.99939C9.82246 0.99939 7.69572 1.64453 5.88678 2.85322C4.07784 4.06192 2.66794 5.77988 1.83538 7.78987C1.00281 9.79986 0.784976 12.0116 1.20941 14.1454C1.63385 16.2792 2.6815 18.2392 4.21988 19.7776C5.75826 21.3159 7.71827 22.3636 9.85206 22.788C11.9858 23.2125 14.1976 22.9946 16.2076 22.1621C18.2176 21.3295 19.9355 19.9196 21.1442 18.1107C22.3529 16.3017 22.9981 14.175 22.9981 11.9994C22.9981 9.08201 21.8391 6.28411 19.7762 4.22122C17.7133 2.15832 14.9154 0.99939 11.9981 0.99939ZM11.9981 20.9994C-18.3179 20.9994 41.431 20.9994 11.9981 20.9994V20.9994Z" fill="#E6E9F4"/>
      <path id="Vector_2" d="M11.9984 5.51971C10.8888 5.52235 9.82566 5.96497 9.04204 6.75046C8.25843 7.53595 7.81836 8.60018 7.81836 9.7097H9.62836C9.62638 9.24054 9.76369 8.78135 10.0229 8.39029C10.2821 7.99923 10.6516 7.69391 11.0844 7.51299C11.5173 7.33208 11.9942 7.28372 12.4546 7.37403C12.915 7.46435 13.3382 7.68927 13.6706 8.02032C14.0031 8.35137 14.2298 8.77365 14.3221 9.23365C14.4143 9.69366 14.368 10.1707 14.1889 10.6043C14.0098 11.038 13.7061 11.4087 13.3161 11.6696C12.9261 11.9304 12.4675 12.0697 11.9984 12.0697C11.7561 12.0697 11.5236 12.1652 11.3513 12.3356C11.1791 12.506 11.081 12.7374 11.0784 12.9797V15.1397H12.8984V13.7897C13.9129 13.5759 14.8119 12.9926 15.4205 12.1532C16.0292 11.3138 16.3041 10.2781 16.1919 9.2473C16.0797 8.21652 15.5885 7.26422 14.8135 6.57536C14.0385 5.8865 13.0352 5.51026 11.9984 5.51971Z" fill="#7E84A3"/>
      <path id="Vector_3" d="M12.0013 16.12C11.7759 16.12 11.5555 16.1869 11.368 16.3122C11.1805 16.4374 11.0344 16.6155 10.9481 16.8238C10.8618 17.0321 10.8392 17.2613 10.8832 17.4824C10.9272 17.7036 11.0358 17.9067 11.1952 18.0661C11.3547 18.2256 11.5578 18.3341 11.7789 18.3781C12.0001 18.4221 12.2293 18.3995 12.4376 18.3133C12.6459 18.227 12.8239 18.0809 12.9492 17.8934C13.0745 17.7059 13.1413 17.4855 13.1413 17.26C13.1427 17.11 13.1141 16.9611 13.0573 16.8222C13.0005 16.6833 12.9165 16.5571 12.8104 16.451C12.7043 16.3448 12.5781 16.2609 12.4392 16.2041C12.3002 16.1473 12.1514 16.1187 12.0013 16.12Z" fill="#7E84A3"/>
    </g>
  </g>
</svg>