<svg width="16" height="16" viewBox="0 0 16 16" fill="none" xmlns="http://www.w3.org/2000/svg">
<g id="icon/line/copy">
<path id="Union" d="M11.5417 2.00326C12.1918 2.01347 12.5873 2.0546 12.9082 2.2181C13.2844 2.40982 13.5902 2.71565 13.7819 3.0918C13.9999 3.5196 14 4.07985 14 5.19987V8.80013L13.9967 9.54167C13.9865 10.1918 13.9454 10.5873 13.7819 10.9082L13.7051 11.0456C13.513 11.3589 13.2375 11.6141 12.9082 11.7819L12.8262 11.8203C12.6026 11.9164 12.3391 11.9603 11.9818 11.9811C11.9583 12.3834 11.9049 12.6669 11.7819 12.9082L11.7051 13.0456C11.513 13.3589 11.2375 13.6141 10.9082 13.7819L10.8262 13.8203C10.5195 13.9521 10.1377 13.9874 9.54167 13.9967L8.80013 14H5.19987C4.07985 14 3.5196 13.9999 3.0918 13.7819C2.76254 13.6141 2.48705 13.3589 2.29492 13.0456L2.2181 12.9082C2.0546 12.5873 2.01347 12.1918 2.00326 11.5417L2 10.8001V7.19987C2 6.14979 2.00005 5.59197 2.17969 5.17383L2.2181 5.0918C2.38592 4.76254 2.64111 4.48705 2.95443 4.29492L3.0918 4.2181C3.3331 4.09515 3.61662 4.04293 4.01888 4.01953C4.03941 3.66155 4.08352 3.39767 4.17969 3.17383L4.2181 3.0918C4.38592 2.76254 4.64111 2.48705 4.95443 2.29492L5.0918 2.2181C5.5196 2.00012 6.07985 2 7.19987 2H10.8001L11.5417 2.00326ZM5.19987 5C4.62356 5 4.25138 5.00096 3.9681 5.02409C3.69695 5.04624 3.59577 5.08353 3.54622 5.10872C3.35806 5.2046 3.2046 5.35806 3.10872 5.54622C3.08353 5.59577 3.04624 5.69695 3.02409 5.9681C3.01253 6.10971 3.00634 6.27352 3.00326 6.47396L3 7.19987V10.8001C3 11.3764 3.00096 11.7486 3.02409 12.0319C3.04624 12.3031 3.08353 12.4042 3.10872 12.4538C3.2046 12.6419 3.35806 12.7954 3.54622 12.8913C3.59577 12.9165 3.69695 12.9538 3.9681 12.9759C4.25138 12.999 4.62356 13 5.19987 13H8.80013C9.37644 13 9.74862 12.999 10.0319 12.9759C10.3031 12.9538 10.4042 12.9165 10.4538 12.8913C10.6419 12.7954 10.7954 12.6419 10.8913 12.4538C10.9165 12.4042 10.9538 12.3031 10.9759 12.0319C10.999 11.7486 11 11.3764 11 10.8001V7.19987C11 6.62356 10.999 6.25138 10.9759 5.9681C10.9538 5.69695 10.9165 5.59577 10.8913 5.54622C10.7954 5.35806 10.6419 5.2046 10.4538 5.10872C10.4042 5.08353 10.3031 5.04624 10.0319 5.02409C9.89029 5.01253 9.72648 5.00634 9.52604 5.00326L8.80013 5H5.19987ZM7.19987 3C6.62356 3 6.25138 3.00096 5.9681 3.02409C5.69695 3.04624 5.59577 3.08353 5.54622 3.10872C5.35806 3.2046 5.2046 3.35806 5.10872 3.54622C5.08353 3.59577 5.04624 3.69695 5.02409 3.9681C5.02321 3.97881 5.02295 3.98968 5.02214 4.00065C5.07977 4.00062 5.13899 4 5.19987 4H8.80013L9.54167 4.00326C10.1918 4.01347 10.5873 4.0546 10.9082 4.2181C11.2844 4.40982 11.5902 4.71565 11.7819 5.0918C11.9999 5.5196 12 6.07985 12 7.19987V10.8001L11.9987 10.9772C12.0099 10.9764 12.021 10.9768 12.0319 10.9759C12.3031 10.9538 12.4042 10.9165 12.4538 10.8913C12.6419 10.7954 12.7954 10.6419 12.8913 10.4538C12.9165 10.4042 12.9538 10.3031 12.9759 10.0319C12.999 9.74862 13 9.37644 13 8.80013V5.19987C13 4.62356 12.999 4.25138 12.9759 3.9681C12.9538 3.69695 12.9165 3.59577 12.8913 3.54622C12.7954 3.35806 12.6419 3.2046 12.4538 3.10872C12.4042 3.08353 12.3031 3.04624 12.0319 3.02409C11.8903 3.01253 11.7265 3.00634 11.526 3.00326L10.8001 3H7.19987Z" fill="#969799"/>
</g>
</svg>