<svg width="24" height="24" viewBox="0 0 24 24" fill="none" xmlns="http://www.w3.org/2000/svg">
<g id="Group 1245022">
<g id="Group 1244977">
<g id="&#233;&#128;&#137;&#228;&#184;&#173;">
<path id="Rectangle-61-Copy" d="M19.5 2H4.5C3.11929 2 2 3.11929 2 4.5V19.5C2 20.8807 3.11929 22 4.5 22H19.5C20.8807 22 22 20.8807 22 19.5V4.5C22 3.11929 20.8807 2 19.5 2Z" fill="#0B5CFF"/>
<path id="Page-1" fill-rule="evenodd" clip-rule="evenodd" d="M5.9162 12.5519C5.6946 12.3169 5.6946 11.9344 5.9162 11.6968L6.71965 10.843C6.94125 10.608 7.30149 10.608 7.52309 10.843L10.2959 13.8334L16.4769 7.17627C16.6985 6.94124 17.0588 6.94124 17.2804 7.17627L18.0838 8.03138C18.3054 8.26641 18.3054 8.65021 18.0838 8.88399L10.6971 16.8237C10.4755 17.0588 10.1153 17.0588 9.89365 16.8237L5.9162 12.5519Z" fill="white"/>
</g>
</g>
</g>
</svg>