<svg width="24" height="24" viewBox="0 0 24 24" fill="none" xmlns="http://www.w3.org/2000/svg">
<g id="Group 1245020">
<g id="Group 1244976">
<g id="&#231;&#159;&#169;&#229;&#189;&#162;">
<path d="M19.3333 2H4.66667C3.19391 2 2 3.19391 2 4.66667V19.3333C2 20.8061 3.19391 22 4.66667 22H19.3333C20.8061 22 22 20.8061 22 19.3333V4.66667C22 3.19391 20.8061 2 19.3333 2Z" fill="white"/>
<path d="M4.66667 2.66667H19.3333C20.4379 2.66667 21.3333 3.5621 21.3333 4.66667V19.3333C21.3333 20.4379 20.4379 21.3333 19.3333 21.3333H4.66667C3.5621 21.3333 2.66667 20.4379 2.66667 19.3333V4.66667C2.66667 3.5621 3.5621 2.66667 4.66667 2.66667Z" stroke="black" stroke-opacity="0.25" stroke-width="1.33333"/>
</g>
</g>
</g>
</svg>